<svg xmlns="http://www.w3.org/2000/svg" version="1.1" xmlns:xlink="http://www.w3.org/1999/xlink" xmlns:svgjs="http://svgjs.dev/svgjs" width="1500" height="1500" viewBox="0 0 1500 1500"><g transform="matrix(1,0,0,1,0,0)"><svg viewBox="0 0 280 280" data-background-color="#162836" preserveAspectRatio="xMidYMid meet" height="1500" width="1500" xmlns="http://www.w3.org/2000/svg" xmlns:xlink="http://www.w3.org/1999/xlink"><g id="tight-bounds" transform="matrix(1,0,0,1,0,0)"><svg viewBox="0 0 280 280" height="280" width="280"><g><svg viewBox="0 0 280 280" height="280" width="280"><g><svg viewBox="0 0 280 280" height="280" width="280"><g id="textblocktransform"><svg viewBox="0 0 280 280" height="280" width="280" id="textblock"><g><svg viewBox="0 0 280 280" height="280" width="280"><g transform="matrix(1,0,0,1,90.50252531694167,90.50252531694167)"><svg viewBox="0 0 98.99494936611666 98.99494936611666" height="98.99494936611666" width="98.99494936611666"><g id="icon-0"><circle r="49" cx="49.49747468305833" cy="49.49747468305833" fill="#d5a187" data-fill-palette-color="accent"></circle></g></svg></g><g id="text-0"><path d="M26.968 93.396c-0.972 2.724-2.269 4.723-3.892 5.996-1.615 1.269-3.491 1.523-5.628 0.76v0c-1.125-0.401-1.915-0.901-2.37-1.5-0.462-0.601-0.557-1.283-0.284-2.045v0c0.196-0.55 0.5-0.948 0.912-1.196 0.412-0.247 0.846-0.29 1.302-0.127v0c0.406 0.145 0.751 0.303 1.035 0.475v0c0.087 0.031 0.226 0.098 0.415 0.2 0.195 0.105 0.405 0.197 0.63 0.278v0c0.925 0.33 1.779 0.106 2.563-0.671 0.782-0.77 1.473-1.996 2.072-3.676v0c0.622-1.743 0.796-3.22 0.524-4.43-0.275-1.204-0.975-2.006-2.1-2.407v0c-0.7-0.25-1.38-0.239-2.04 0.033-0.667 0.269-1.289 0.681-1.867 1.235-0.58 0.561-1.337 1.368-2.269 2.423v0c-1.174 1.356-2.217 2.435-3.13 3.236-0.91 0.795-1.966 1.376-3.168 1.744-1.208 0.365-2.518 0.296-3.929-0.208v0c-1.481-0.528-2.656-1.391-3.525-2.588-0.863-1.195-1.347-2.65-1.454-4.364-0.107-1.714 0.198-3.577 0.916-5.589v0c0.535-1.499 1.247-2.795 2.136-3.886 0.883-1.094 1.911-1.854 3.085-2.281 1.167-0.429 2.407-0.409 3.719 0.059v0c1.293 0.461 2.198 1.006 2.713 1.633 0.518 0.621 0.642 1.31 0.373 2.066v0c-0.192 0.537-0.513 0.926-0.966 1.167-0.46 0.244-0.916 0.286-1.365 0.125v0c-0.394-0.14-0.742-0.3-1.045-0.478v0c-0.596-0.283-0.976-0.454-1.138-0.511v0c-0.862-0.308-1.669-0.12-2.419 0.563-0.748 0.677-1.346 1.64-1.791 2.89v0c-0.631 1.768-0.79 3.232-0.479 4.392 0.318 1.163 1.061 1.952 2.229 2.37v0c0.781 0.279 1.532 0.275 2.254-0.01 0.728-0.283 1.404-0.718 2.029-1.305 0.625-0.587 1.424-1.436 2.397-2.546v0c1.192-1.328 2.213-2.373 3.062-3.134 0.849-0.761 1.833-1.318 2.952-1.672 1.117-0.348 2.322-0.291 3.616 0.17v0c2.418 0.862 3.953 2.442 4.606 4.738 0.644 2.3 0.417 4.991-0.681 8.071z" fill="#cf7650" data-fill-palette-color="primary"></path><path d="M101.056 13.146c0.267-0.101 0.526-0.054 0.777 0.141 0.245 0.198 0.441 0.489 0.587 0.874v0c0.176 0.465 0.244 0.858 0.202 1.179-0.042 0.321-0.175 0.641-0.402 0.961v0l-4.369 6.158c0.824 4.512 1.067 8.211 0.729 11.099-0.338 2.888-1.475 4.699-3.41 5.433v0c-1.036 0.393-2.002 0.39-2.897-0.008-0.893-0.392-1.538-1.109-1.933-2.151v0c-0.362-0.955-0.516-2.014-0.46-3.178 0.062-1.166 0.443-2.619 1.145-4.361 0.699-1.748 1.821-3.869 3.366-6.363v0l-0.172-0.733c-0.144-0.811-0.389-1.952-0.735-3.424v0c0.146 1.619-0.003 2.949-0.445 3.989-0.443 1.04-1.073 1.716-1.892 2.026v0c-0.912 0.346-1.819 0.207-2.722-0.415-0.897-0.625-1.585-1.57-2.065-2.835v0c-0.579-1.526-1.01-2.962-1.293-4.309-0.277-1.349-0.451-2.826-0.521-4.432v0c-0.026-0.685 0.094-1.231 0.359-1.636 0.265-0.405 0.794-0.759 1.588-1.06v0c0.447-0.169 0.784-0.216 1.012-0.139 0.228 0.077 0.396 0.258 0.504 0.544v0c0.064 0.167 0.161 0.762 0.293 1.783v0c0.08 0.828 0.173 1.57 0.279 2.224v0c0.156 0.898 0.317 1.753 0.482 2.563 0.165 0.81 0.341 1.46 0.527 1.95v0c0.294 0.775 0.655 1.082 1.083 0.919v0c0.31-0.118 0.575-0.569 0.795-1.355 0.228-0.782 0.368-1.892 0.419-3.33 0.048-1.444-0.026-3.165-0.223-5.161v0c-0.069-0.669 0.013-1.2 0.247-1.594 0.234-0.394 0.686-0.718 1.355-0.972v0c0.471-0.179 0.821-0.24 1.048-0.184 0.233 0.053 0.404 0.223 0.512 0.508v0c0.193 0.509 0.592 2.358 1.198 5.547v0l1.067 5.225c1.12-1.78 2.24-3.439 3.359-4.977v0c0.199-0.26 0.401-0.429 0.606-0.506zM94.38 35.896c0.515-0.195 0.862-1.001 1.041-2.417 0.183-1.425 0.071-3.631-0.338-6.618v0c-1.066 1.922-1.744 3.559-2.033 4.91-0.287 1.357-0.276 2.442 0.032 3.255v0c0.132 0.347 0.305 0.608 0.52 0.782 0.215 0.174 0.474 0.203 0.778 0.088z" fill="#cf7650" data-fill-palette-color="primary"></path><path d="M198.067 23.561c0.252 0.12 0.396 0.332 0.435 0.637 0.03 0.308-0.054 0.669-0.251 1.082v0c-0.374 0.784-0.849 1.304-1.426 1.558v0c-1.147 0.541-2.563 0.869-4.25 0.984-1.677 0.112-3.273-0.193-4.788-0.915v0c-2.066-0.984-3.401-2.308-4.005-3.97-0.61-1.665-0.452-3.47 0.476-5.416v0c0.645-1.353 1.534-2.48 2.668-3.38 1.125-0.897 2.358-1.448 3.698-1.654 1.34-0.206 2.648-0.006 3.924 0.602v0c1.144 0.545 1.894 1.321 2.252 2.329 0.366 1.005 0.273 2.088-0.281 3.25v0c-0.645 1.353-1.684 2.284-3.116 2.792-1.441 0.511-3.456 0.499-6.045-0.037v0c0.06 1.138 0.779 2.035 2.156 2.692v0c0.886 0.422 2.039 0.593 3.459 0.513 1.429-0.083 2.794-0.428 4.097-1.035v0c0.365-0.164 0.697-0.175 0.997-0.032zM192.667 15.741c-0.725-0.345-1.54-0.216-2.445 0.389-0.899 0.608-1.636 1.513-2.21 2.717v0l-0.025 0.054c1.287 0.275 2.397 0.297 3.33 0.066 0.927-0.234 1.563-0.714 1.909-1.438v0c0.177-0.371 0.218-0.719 0.122-1.044-0.101-0.327-0.328-0.575-0.681-0.744z" fill="#cf7650" data-fill-palette-color="primary"></path><path d="M258.665 103.803c0.088 0.271 0.034 0.523-0.163 0.754-0.201 0.24-0.519 0.43-0.955 0.572v0c-0.826 0.269-1.53 0.281-2.111 0.037v0c-1.311-0.515-2.501-1.161-3.57-1.937-1.062-0.778-1.754-1.662-2.075-2.652v0c-0.513-1.577 0.018-3.078 1.591-4.503v0c-1.381-0.514-2.363-1.035-2.946-1.565-0.585-0.535-1.02-1.238-1.302-2.108v0c-0.41-1.262-0.277-2.452 0.398-3.572 0.673-1.126 1.767-1.934 3.281-2.426v0c1.659-0.539 3.309-0.688 4.95-0.447 1.649 0.245 3.125 0.836 4.427 1.773 1.304 0.943 2.287 2.155 2.949 3.635v0c4.146-0.915 7.822-1.279 11.027-1.094 3.21 0.177 5.109 1.168 5.695 2.972v0c0.289 0.89 0.126 1.762-0.488 2.618-0.617 0.849-1.745 1.54-3.386 2.073v0c-2.315 0.752-5.212 1.066-8.692 0.941-3.475-0.133-7.159-0.62-11.052-1.461v0c-1.172 0.472-1.972 0.93-2.399 1.376-0.425 0.452-0.567 0.896-0.425 1.331v0c0.18 0.555 0.611 1.043 1.292 1.463 0.687 0.418 1.769 0.925 3.245 1.519v0c0.372 0.158 0.609 0.392 0.709 0.701zM276.704 93.892c-0.129-0.397-0.958-0.564-2.486-0.5-1.521 0.062-3.457 0.318-5.808 0.768-2.349 0.456-4.774 1.021-7.275 1.694v0c5.801 0.681 10.235 0.524 13.301-0.472v0c0.789-0.256 1.379-0.521 1.771-0.795 0.39-0.28 0.556-0.512 0.497-0.695zM250.62 92.471c0.129 0.397 0.418 0.739 0.867 1.026 0.449 0.287 1.207 0.591 2.274 0.914v0c1.049-0.571 2.267-1.082 3.655-1.533v0c0.498-0.162 1.312-0.405 2.441-0.73v0c-0.722-1.021-1.79-1.72-3.203-2.098-1.419-0.376-2.842-0.332-4.268 0.131v0c-1.514 0.492-2.103 1.255-1.766 2.29z" fill="#cf7650" data-fill-palette-color="primary"></path><path d="M11.585 180.053c-1.098-2.996-1.409-5.606-0.931-7.83 0.474-2.215 1.885-3.754 4.232-4.614v0c1.239-0.454 2.265-0.587 3.077-0.396 0.809 0.184 1.367 0.693 1.672 1.527v0c0.224 0.61 0.248 1.167 0.072 1.669-0.178 0.496-0.514 0.835-1.006 1.016v0c-0.455 0.167-0.863 0.277-1.224 0.332v0c-0.087 0.032-0.252 0.075-0.493 0.128-0.238 0.045-0.481 0.113-0.731 0.204v0c-1.009 0.37-1.574 1.16-1.696 2.37-0.122 1.21 0.156 2.737 0.832 4.581v0c0.703 1.918 1.598 3.289 2.684 4.113 1.082 0.833 2.243 1.022 3.483 0.568v0c0.766-0.281 1.335-0.772 1.706-1.474 0.368-0.693 0.601-1.482 0.701-2.366 0.102-0.878 0.176-2.092 0.223-3.642v0c0.036-1.984 0.159-3.633 0.37-4.947 0.205-1.311 0.69-2.549 1.457-3.714 0.761-1.162 1.92-2.029 3.477-2.599v0c1.619-0.594 3.22-0.689 4.801-0.287 1.575 0.405 3.012 1.298 4.311 2.68 1.302 1.374 2.358 3.166 3.168 5.377v0c0.603 1.644 0.912 3.24 0.929 4.789 0.019 1.554-0.316 2.924-1.005 4.109-0.689 1.185-1.756 2.043-3.201 2.573v0c-1.42 0.521-2.57 0.698-3.45 0.533-0.871-0.161-1.46-0.659-1.766-1.493v0c-0.215-0.585-0.217-1.143-0.008-1.671 0.217-0.525 0.575-0.879 1.073-1.062v0c0.43-0.158 0.838-0.268 1.224-0.332v0c0.698-0.178 1.137-0.3 1.318-0.366v0c0.947-0.347 1.5-1.073 1.66-2.177 0.152-1.108-0.025-2.351-0.529-3.728v0c-0.71-1.937-1.607-3.286-2.692-4.047-1.087-0.767-2.272-0.916-3.554-0.445v0c-0.853 0.313-1.488 0.846-1.904 1.599-0.416 0.753-0.682 1.599-0.797 2.539-0.117 0.933-0.196 2.212-0.236 3.837v0c-0.076 1.971-0.203 3.579-0.383 4.825-0.188 1.242-0.63 2.407-1.325 3.496-0.704 1.085-1.767 1.888-3.187 2.408v0c-2.653 0.973-5.066 0.713-7.238-0.78-2.17-1.487-3.875-3.921-5.114-7.303z" fill="#cf7650" data-fill-palette-color="primary"></path><path d="M102.446 255.143c0.292 0.108 0.47 0.337 0.531 0.685 0.064 0.342 0.017 0.728-0.142 1.157v0c-0.191 0.516-0.419 0.892-0.682 1.126-0.264 0.235-0.608 0.401-1.033 0.498v0l-8.09 1.959c-2.584 4.341-5.06 7.587-7.426 9.738-2.376 2.155-4.63 2.837-6.764 2.047v0c-1.151-0.426-1.956-1.128-2.415-2.104-0.453-0.974-0.467-2.033-0.043-3.178v0c0.392-1.057 1.032-2.051 1.921-2.981 0.893-0.921 2.264-1.853 4.113-2.795 1.84-0.938 4.306-1.885 7.397-2.841v0l0.39-0.737c0.47-0.774 1.093-1.901 1.868-3.382v0c-1.049 1.458-2.134 2.457-3.253 2.997-1.128 0.544-2.14 0.65-3.036 0.318v0c-1.014-0.376-1.668-1.148-1.964-2.319-0.295-1.17-0.185-2.452 0.332-3.845v0c0.627-1.692 1.312-3.199 2.056-4.523 0.745-1.323 1.667-2.676 2.766-4.058v0c0.475-0.595 0.972-0.963 1.491-1.103 0.513-0.143 1.207-0.051 2.085 0.274v0c0.491 0.182 0.805 0.386 0.94 0.613 0.133 0.233 0.142 0.505 0.026 0.816v0c-0.067 0.18-0.417 0.744-1.05 1.691v0c-0.533 0.751-0.992 1.436-1.378 2.057v0c-0.521 0.854-1.004 1.68-1.448 2.478-0.45 0.795-0.775 1.464-0.976 2.004v0c-0.316 0.852-0.237 1.366 0.236 1.541v0c0.336 0.124 0.88-0.056 1.633-0.541 0.761-0.489 1.683-1.315 2.764-2.478 1.079-1.157 2.26-2.636 3.543-4.438v0c0.432-0.611 0.888-0.994 1.369-1.148 0.482-0.154 1.092-0.094 1.833 0.18v0c0.516 0.191 0.852 0.393 1.006 0.606 0.148 0.211 0.165 0.471 0.05 0.782v0c-0.21 0.566-1.219 2.392-3.026 5.479v0l-2.892 5.115c2.219-0.664 4.351-1.232 6.393-1.707v0c0.359-0.072 0.651-0.067 0.875 0.017zM80.417 269.213c0.566 0.21 1.439-0.21 2.62-1.258 1.178-1.042 2.679-2.955 4.502-5.739v0c-2.271 0.821-4.018 1.691-5.243 2.611-1.222 0.913-2 1.82-2.334 2.721v0c-0.143 0.386-0.185 0.727-0.125 1.026 0.051 0.302 0.244 0.515 0.58 0.639z" fill="#cf7650" data-fill-palette-color="primary"></path><path d="M199.29 243.606c0.281-0.134 0.566-0.108 0.853 0.078 0.29 0.177 0.544 0.494 0.762 0.949v0c0.414 0.868 0.528 1.637 0.34 2.307v0c-0.336 1.359-1.038 2.8-2.104 4.323-1.075 1.52-2.445 2.678-4.109 3.472v0c-2.275 1.086-4.335 1.312-6.181 0.679-1.846-0.633-3.282-2.024-4.307-4.173v0c-0.712-1.491-1.06-3.029-1.046-4.616 0.011-1.593 0.397-3.034 1.156-4.323 0.751-1.292 1.829-2.273 3.236-2.945v0c1.257-0.6 2.441-0.706 3.553-0.318 1.117 0.385 1.981 1.216 2.589 2.491v0c0.714 1.497 0.792 3.036 0.231 4.619-0.56 1.583-1.968 3.299-4.224 5.148v0c1.013 0.737 2.28 0.742 3.801 0.016v0c0.976-0.466 1.923-1.337 2.842-2.614 0.919-1.277 1.571-2.683 1.956-4.219v0c0.112-0.428 0.329-0.719 0.652-0.874zM188.864 242.806c-0.802 0.383-1.26 1.171-1.374 2.365-0.105 1.197 0.157 2.454 0.785 3.771v0l0.035 0.071c1.135-0.917 1.927-1.853 2.374-2.809 0.445-0.962 0.477-1.841 0.097-2.637v0c-0.197-0.413-0.47-0.691-0.817-0.834-0.345-0.137-0.712-0.112-1.1 0.073z" fill="#cf7650" data-fill-palette-color="primary"></path><path d="M259.686 162.919c0.098-0.296 0.314-0.483 0.648-0.561 0.327-0.08 0.73-0.041 1.208 0.118v0c0.913 0.303 1.546 0.754 1.9 1.353v0c0.831 1.31 1.468 2.656 1.91 4.04 0.434 1.388 0.471 2.627 0.11 3.716v0c-0.574 1.732-2.026 2.718-4.356 2.958v0c0.892 1.358 1.423 2.463 1.594 3.317 0.171 0.853 0.098 1.759-0.219 2.716v0c-0.461 1.392-1.36 2.362-2.694 2.912-1.331 0.558-2.828 0.562-4.491 0.011v0c-1.826-0.605-3.388-1.553-4.686-2.843-1.305-1.292-2.23-2.78-2.777-4.464-0.54-1.681-0.621-3.396-0.244-5.144v0c-4.276-1.9-7.777-3.976-10.504-6.228-2.731-2.261-3.768-4.38-3.113-6.357v0c0.326-0.982 1.04-1.65 2.143-2.005 1.103-0.354 2.555-0.233 4.355 0.364v0c2.55 0.845 5.327 2.461 8.33 4.848 3.004 2.386 5.956 5.224 8.856 8.512v0c1.354 0.344 2.368 0.457 3.043 0.338 0.669-0.121 1.083-0.42 1.242-0.899v0c0.202-0.611 0.136-1.328-0.199-2.152-0.337-0.818-0.964-1.972-1.881-3.464v0c-0.231-0.377-0.29-0.739-0.175-1.086zM237.203 159.942c-0.144 0.434 0.48 1.124 1.872 2.068 1.392 0.944 3.282 1.979 5.669 3.105 2.379 1.131 4.899 2.214 7.56 3.251v0c-4.708-4.391-8.75-7.146-12.124-8.265v0c-0.863-0.286-1.557-0.436-2.084-0.449-0.529-0.008-0.826 0.089-0.893 0.29zM259.432 178.234c0.142-0.428 0.109-0.918-0.1-1.469-0.209-0.551-0.682-1.316-1.42-2.295v0c-1.309-0.182-2.726-0.526-4.25-1.031v0c-0.548-0.182-1.428-0.498-2.641-0.949v0c-0.031 1.38 0.461 2.7 1.476 3.959 1.009 1.257 2.301 2.146 3.875 2.668v0c1.662 0.551 2.682 0.257 3.06-0.883z" fill="#cf7650" data-fill-palette-color="primary"></path><path d="M0 133.359c0-6.478 5.252-11.73 11.73-11.73 6.478 0 11.73 5.252 11.729 11.73 0 6.478-5.252 11.73-11.729 11.73-6.478 0-11.73-5.252-11.73-11.73z" fill="#cf7650" data-fill-palette-color="primary"></path><path d="M250.747 133.359c0-6.478 5.252-11.73 11.73-11.73 6.478 0 11.73 5.252 11.73 11.73 0 6.478-5.252 11.73-11.73 11.73-6.478 0-11.73-5.252-11.73-11.73z" fill="#cf7650" data-fill-palette-color="primary"></path></g><g id="text-1"></g></svg></g></svg></g></svg></g></svg></g><defs></defs></svg><rect width="280" height="280" fill="none" stroke="none" visibility="hidden"></rect></g></svg></g></svg>